<?xml version="1.0" ?><!DOCTYPE svg  PUBLIC '-//W3C//DTD SVG 1.1//EN'  'http://www.w3.org/Graphics/SVG/1.1/DTD/svg11.dtd'><svg height="130px" style="enable-background:new 0 0 128 130;" version="1.1" viewBox="0 0 128 130" width="128px" xml:space="preserve" xmlns="http://www.w3.org/2000/svg" xmlns:xlink="http://www.w3.org/1999/xlink"><style type="text/css">
<![CDATA[
	.st0{fill:#EF3E42;}
	.st1{fill:#FFFFFF;}
	.st2{fill:none;}
	.st3{fill-rule:evenodd;clip-rule:evenodd;fill:#FFFFFF;}
]]>
</style><defs/><path d="M9.5,65.4c0-29.6,24.1-53.6,53.6-53.6c29.6,0,53.6,24,53.6,53.6c0,29.6-23.9,53.6-53.6,53.6C33.6,119,9.5,95,9.5,65.4  L9.5,65.4L9.5,65.4z M47.3,56.1v7.8H54v29.6h-6.7v7.8h31.5v-7.8h-6.6V63.9h6.6v-7.8H47.3L47.3,56.1L47.3,56.1z M51.9,40.9  c0,6.2,5.1,11.3,11.3,11.3c6.2,0,11.3-5,11.3-11.3c0-6.2-5.1-11.3-11.3-11.3C56.9,29.6,51.9,34.7,51.9,40.9L51.9,40.9L51.9,40.9z"/><rect class="st2" height="130" id="_x3C_Slice_x3E__100_" width="128"/></svg>